<svg viewBox="0 0 625.73 634.75" xmlns="http://www.w3.org/2000/svg"><path d="m40.46 277.24c10.92 0 18.82 3.68 26.18 10.06a2 2 0 0 1 .11 3l-4.75 4.9c-.76 1-1.73 1-2.71 0a29.35 29.35 0 0 0 -18.73-7.2c-15.47 0-27.15 13-27.15 28.14s11.79 28 27.26 28c7.9 0 13.42-3.14 18.61-7.14a2 2 0 0 1 2.6-.11l5 4.87a2.06 2.06 0 0 1 -.11 2.92 37.14 37.14 0 0 1 -26.29 10.5 39 39 0 1 1 0-77.91z"/><path d="m90.7 280.38a2.13 2.13 0 0 1 2.06-2.06h7.24a2.05 2.05 0 0 1 2 2.06v44.69c0 10.82 6.93 19.26 18 19.26s18.2-8.33 18.2-19.05v-44.9a2.06 2.06 0 0 1 2.06-2.06h7.25a2.13 2.13 0 0 1 2.05 2.06v45.44c0 16.45-12.44 29.33-29.54 29.33s-29.32-12.88-29.32-29.33z"/><path d="m176 280.38a2.06 2.06 0 0 1 2.06-2.06h29.44a23.35 23.35 0 0 1 23.59 23.16c0 9.95-6.6 18.18-16 22l14.83 27.49a2 2 0 0 1 -1.84 3.13h-8.44a2 2 0 0 1 -1.73-1l-14.4-28.67h-16.35v27.57a2.13 2.13 0 0 1 -2.06 2.05h-7a2.05 2.05 0 0 1 -2.1-2.05zm30.62 34.73a13.44 13.44 0 0 0 13.2-13.42c0-7-6.16-12.87-13.2-12.87h-19.25v26.29z"/><path d="m251.12 351.25 33.22-72.82a2.54 2.54 0 0 1 1.84-1.19h1.08a2.52 2.52 0 0 1 1.84 1.19l33 72.82a1.9 1.9 0 0 1 -1.83 2.81h-6.82a2.51 2.51 0 0 1 -2.49-1.62l-6.71-14.82h-35.38c-2.16 5-4.44 9.84-6.6 14.82a2.72 2.72 0 0 1 -2.49 1.62h-6.78a1.91 1.91 0 0 1 -1.88-2.81zm49-22.94-13.31-29.64h-.54l-13.2 29.64z"/><path d="m352.28 288.49h-17.63a2.05 2.05 0 0 1 -2.06-2.05v-6.06a2.06 2.06 0 0 1 2.06-2.06h46.52a2.06 2.06 0 0 1 2.06 2.06v6.06a2.05 2.05 0 0 1 -2.06 2.05h-17.63v63.51a2.13 2.13 0 0 1 -2.06 2.05h-7.14a2.13 2.13 0 0 1 -2.06-2.05z"/><path d="m437.11 277.24a39 39 0 1 1 -38.84 39.06 38.89 38.89 0 0 1 38.84-39.06zm0 67.09a28.14 28.14 0 1 0 -28-28 28.12 28.12 0 0 0 28 28z"/><path d="m498 280.38a2.06 2.06 0 0 1 2.06-2.06h29.43a23.35 23.35 0 0 1 23.59 23.16c0 9.95-6.6 18.18-16 22l14.83 27.49a2 2 0 0 1 -1.84 3.13h-8.44a2 2 0 0 1 -1.73-1l-14.4-28.67h-16.38v27.57a2.13 2.13 0 0 1 -2.06 2.05h-7a2.05 2.05 0 0 1 -2.06-2.05zm30.62 34.73a13.44 13.44 0 0 0 13.2-13.42c0-7-6.16-12.87-13.2-12.87h-19.29v26.29z"/><path d="m575.51 343.14c1-1.41 1.84-3 2.82-4.44s2.49-1.84 3.68-.87c.65.55 9 7.47 17.31 7.47 7.46 0 12.23-4.54 12.23-10.06 0-6.49-5.63-10.61-16.34-15-11-4.66-19.7-10.39-19.7-22.94 0-8.44 6.5-20 23.7-20a36.63 36.63 0 0 1 20 6.39 2.57 2.57 0 0 1 .65 3.67c-.87 1.3-1.84 2.82-2.71 4.12s-2.27 2.05-3.78 1.08c-.76-.43-8.34-5.41-14.61-5.41-9.09 0-12.23 5.73-12.23 9.74 0 6.16 4.76 9.95 13.74 13.63 12.55 5.08 23.27 11 23.27 24.24 0 11.25-10.07 20.45-24.13 20.45a35.08 35.08 0 0 1 -23.27-8.55c-.95-.93-1.71-1.66-.63-3.52z"/><path d="m40.46 395c10.92 0 18.82 3.68 26.18 10.07a2 2 0 0 1 .11 3l-4.75 4.93c-.76 1-1.73 1-2.71 0a29.35 29.35 0 0 0 -18.72-7.25c-15.47 0-27.15 13-27.15 28.14s11.79 28 27.26 28c7.9 0 13.42-3.14 18.61-7.14a2 2 0 0 1 2.6-.11l5 4.87a2.06 2.06 0 0 1 -.11 2.92 37.14 37.14 0 0 1 -26.32 10.57 39 39 0 1 1 0-77.91z"/><path d="m123.67 395a39 39 0 1 1 -38.84 39.1 38.88 38.88 0 0 1 38.84-39.1zm0 67.09a28.14 28.14 0 1 0 -28-28 28.12 28.12 0 0 0 28 28.04z"/><path d="m185.06 398.18a2.05 2.05 0 0 1 2.05-2.06h43.29a2.05 2.05 0 0 1 2 2.06v6.06a2.05 2.05 0 0 1 -2 2.06h-34.2v25h28.89a2.12 2.12 0 0 1 2.06 2.06v5.95a2.12 2.12 0 0 1 -2.06 2.05h-28.89v28.46a2.13 2.13 0 0 1 -2 2.06h-7a2.05 2.05 0 0 1 -2.05-2.06z"/><path d="m259.25 398.18a2.05 2.05 0 0 1 2.05-2.06h43.28a2.06 2.06 0 0 1 2.06 2.06v6.06a2.06 2.06 0 0 1 -2.06 2.06h-34.19v25h28.89a2.13 2.13 0 0 1 2.06 2.06v5.95a2.13 2.13 0 0 1 -2.06 2.05h-28.89v28.46a2.13 2.13 0 0 1 -2.05 2.06h-7a2.05 2.05 0 0 1 -2.05-2.06z"/><path d="m333.45 398.18a2.05 2.05 0 0 1 2.05-2.06h43.28a2.06 2.06 0 0 1 2.06 2.06v6.06a2.06 2.06 0 0 1 -2.06 2.06h-34.19v22.07h28.89a2.13 2.13 0 0 1 2.06 2.05v6.06a2.06 2.06 0 0 1 -2.06 2.06h-28.89v23.26h34.19a2.06 2.06 0 0 1 2.06 2.06v5.95a2.06 2.06 0 0 1 -2.06 2.06h-43.28a2.05 2.05 0 0 1 -2.05-2.06z"/><path d="m407.63 398.18a2.06 2.06 0 0 1 2.06-2.06h43.31a2.06 2.06 0 0 1 2.06 2.06v6.06a2.06 2.06 0 0 1 -2.06 2.06h-34.22v22.07h28.89a2.12 2.12 0 0 1 2.05 2.05v6.06a2.05 2.05 0 0 1 -2.05 2.06h-28.89v23.26h34.22a2.06 2.06 0 0 1 2.06 2.06v5.95a2.06 2.06 0 0 1 -2.06 2.06h-43.31a2.06 2.06 0 0 1 -2.06-2.06z"/><path d="m312.87 12 307.6 115.35a2 2 0 0 0 .68.12 2.12 2.12 0 0 0 2-1.39l2.48-6.6a2.28 2.28 0 0 0 .11-.7 2.11 2.11 0 0 0 -1.29-2l-311.58-116.78-311.57 116.84a2.1 2.1 0 0 0 -1.3 2 2.28 2.28 0 0 0 .11.7l2.47 6.6a2.13 2.13 0 0 0 2 1.39 2 2 0 0 0 .68-.12z"/><path d="m622.26 623.5h-618.78a2.11 2.11 0 0 0 -2.12 2.11v7a2.11 2.11 0 0 0 2.12 2.11h618.78a2.11 2.11 0 0 0 2.12-2.11v-7a2.11 2.11 0 0 0 -2.12-2.11z"/></svg>