<?xml version="1.0" encoding="UTF-8"?>
<svg width="400px" height="28px" viewBox="0 0 400 28" version="1.1" xmlns="http://www.w3.org/2000/svg" xmlns:xlink="http://www.w3.org/1999/xlink">
    <!-- Generator: Sketch 48.2 (47327) - http://www.bohemiancoding.com/sketch -->
    <title>Page 1</title>
    <desc>Created with Sketch.</desc>
    <defs>
        <polygon id="path-1" points="0 0.3715 23.4127236 0.3715 23.4127236 27.9975 0 27.9975"></polygon>
        <polygon id="path-3" points="0.1945 0.7548 17 0.7548 17 27.6148 0.1945 27.6148"></polygon>
    </defs>
    <g id="Desktop" stroke="none" stroke-width="1" fill="none" fill-rule="evenodd" transform="translate(-69.000000, -113.000000)">
        <g id="Page-1" transform="translate(69.000000, 112.000000)">
            <g id="Group-3" transform="translate(0.000000, 0.629600)">
                <mask id="mask-2" fill="white">
                    <use xlink:href="#path-1"></use>
                </mask>
                <g id="Clip-2"></g>
                <path d="M13.8518,0.3715 C17.7278,0.3715 20.5288,1.6755 23.1378,3.9405 C23.4828,4.2465 23.4828,4.7085 23.1758,5.0125 L21.4878,6.7395 C21.2198,7.0875 20.8748,7.0875 20.5288,6.7395 C18.7258,5.1675 16.2688,4.1695 13.8908,4.1695 C8.4038,4.1695 4.2598,8.7755 4.2598,14.1455 C4.2598,19.5185 8.4428,24.0835 13.9298,24.0835 C16.7308,24.0835 18.6868,22.9725 20.5288,21.5525 C20.8748,21.2845 21.2198,21.3205 21.4498,21.5145 L23.2148,23.2405 C23.5208,23.5085 23.4438,24.0085 23.1758,24.2765 C20.5678,26.8095 17.2668,27.9975 13.8518,27.9975 C6.1778,27.9975 -0.0002,21.8975 -0.0002,14.2235 C-0.0002,6.5485 6.1778,0.3715 13.8518,0.3715" id="Fill-1" fill="#000000" mask="url(#mask-2)"></path>
            </g>
            <path d="M31.5373,2.1134 C31.5373,1.7294 31.8823,1.3844 32.2663,1.3844 L34.8383,1.3844 C35.2583,1.3844 35.5653,1.7294 35.5653,2.1134 L35.5653,17.9604 C35.5653,21.7974 38.0213,24.7894 41.9353,24.7894 C45.8893,24.7894 48.3833,21.8364 48.3833,18.0374 L48.3833,2.1134 C48.3833,1.7294 48.6903,1.3844 49.1103,1.3844 L51.6823,1.3844 C52.0663,1.3844 52.4123,1.7294 52.4123,2.1134 L52.4123,18.2284 C52.4123,24.0624 47.9993,28.6294 41.9353,28.6294 C35.9133,28.6294 31.5373,24.0624 31.5373,18.2284 L31.5373,2.1134 Z" id="Fill-4" fill="#000000"></path>
            <path d="M61.9558,2.1134 C61.9558,1.7294 62.2628,1.3844 62.6848,1.3844 L73.1228,1.3844 C77.7248,1.3844 81.4878,5.0304 81.4878,9.5944 C81.4878,13.1254 79.1448,16.0424 75.8078,17.3854 L81.0648,27.1324 C81.3328,27.6294 81.0648,28.2454 80.4128,28.2454 L77.4178,28.2454 C77.1118,28.2454 76.8818,28.0514 76.8048,27.8974 L71.7028,17.7304 L65.9088,17.7304 L65.9088,27.5154 C65.9088,27.8974 65.5628,28.2454 65.1798,28.2454 L62.6848,28.2454 C62.2628,28.2454 61.9558,27.8974 61.9558,27.5154 L61.9558,2.1134 Z M72.8148,14.4294 C75.3078,14.4294 77.4958,12.3214 77.4958,9.6724 C77.4958,7.1774 75.3078,5.1084 72.8148,5.1084 L65.9838,5.1084 L65.9838,14.4294 L72.8148,14.4294 Z" id="Fill-6" fill="#000000"></path>
            <path d="M88.5017,27.2462 L100.2817,1.4212 C100.3977,1.1922 100.7427,1.0012 100.9337,1.0012 L101.3177,1.0012 C101.5077,1.0012 101.8537,1.1922 101.9697,1.4212 L113.6717,27.2462 C113.9037,27.7442 113.5947,28.2442 113.0207,28.2442 L110.6027,28.2442 C110.1417,28.2442 109.8737,28.0142 109.7217,27.6662 L107.3427,22.4122 L94.7947,22.4122 C94.0267,24.1772 93.2207,25.9042 92.4547,27.6662 C92.3387,27.9372 92.0317,28.2442 91.5707,28.2442 L89.1537,28.2442 C88.5787,28.2442 88.2727,27.7442 88.5017,27.2462 Z M105.8837,19.1102 L101.1657,8.5982 L100.9717,8.5982 L96.2917,19.1102 L105.8837,19.1102 Z" id="Fill-8" fill="#000000"></path>
            <path d="M124.7839,4.9908 L118.5299,4.9908 C118.1069,4.9908 117.7999,4.6448 117.7999,4.2618 L117.7999,2.1148 C117.7999,1.7308 118.1069,1.3848 118.5299,1.3848 L135.0309,1.3848 C135.4509,1.3848 135.7579,1.7308 135.7579,2.1148 L135.7579,4.2618 C135.7579,4.6448 135.4509,4.9908 135.0309,4.9908 L128.7759,4.9908 L128.7759,27.5168 C128.7759,27.8988 128.4279,28.2438 128.0439,28.2438 L125.5129,28.2438 C125.1289,28.2438 124.7839,27.8988 124.7839,27.5168 L124.7839,4.9908 Z" id="Fill-10" fill="#000000"></path>
            <path d="M154.4343,1.0006 C162.1093,1.0006 168.2473,7.1776 168.2473,14.8526 C168.2473,22.5266 162.1093,28.6296 154.4343,28.6296 C146.7603,28.6296 140.6603,22.5266 140.6603,14.8526 C140.6603,7.1776 146.7603,1.0006 154.4343,1.0006 M154.4343,24.7906 C159.9213,24.7906 164.4103,20.3396 164.4103,14.8526 C164.4103,9.4046 159.9213,4.8376 154.4343,4.8376 C148.9863,4.8376 144.4973,9.4046 144.4973,14.8526 C144.4973,20.3396 148.9863,24.7906 154.4343,24.7906" id="Fill-12" fill="#000000"></path>
            <path d="M175.8606,2.1134 C175.8606,1.7294 176.1676,1.3844 176.5896,1.3844 L187.0276,1.3844 C191.6306,1.3844 195.3926,5.0304 195.3926,9.5944 C195.3926,13.1254 193.0496,16.0424 189.7126,17.3854 L194.9696,27.1324 C195.2376,27.6294 194.9696,28.2444 194.3176,28.2444 L191.3226,28.2444 C191.0166,28.2444 190.7866,28.0514 190.7096,27.8974 L185.6076,17.7304 L179.8136,17.7304 L179.8136,27.5154 C179.8136,27.8974 179.4676,28.2444 179.0846,28.2444 L176.5896,28.2444 C176.1676,28.2444 175.8606,27.8974 175.8606,27.5154 L175.8606,2.1134 Z M186.7206,14.4294 C189.2126,14.4294 191.4006,12.3214 191.4006,9.6724 C191.4006,7.1794 189.2126,5.1074 186.7206,5.1074 L179.8906,5.1074 L179.8906,14.4294 L186.7206,14.4294 Z" id="Fill-14" fill="#000000"></path>
            <path d="M203.8996,24.3693 C204.2446,23.8713 204.5516,23.2943 204.8976,22.7943 C205.2426,22.2973 205.7806,22.1423 206.2036,22.4883 C206.4326,22.6813 209.3866,25.1373 212.3416,25.1373 C214.9886,25.1373 216.6766,23.5243 216.6766,21.5683 C216.6766,19.2643 214.6826,17.8073 210.8836,16.2333 C206.9686,14.5833 203.8996,12.5503 203.8996,8.0973 C203.8996,5.1073 206.2036,1.0003 212.3036,1.0003 C216.1406,1.0003 219.0196,2.9973 219.4036,3.2633 C219.7076,3.4553 220.0166,3.9943 219.6326,4.5693 C219.3256,5.0303 218.9806,5.5663 218.6716,6.0283 C218.3676,6.5273 217.8676,6.7573 217.3286,6.4093 C217.0606,6.2573 214.3756,4.4923 212.1496,4.4923 C208.9276,4.4923 207.8146,6.5273 207.8146,7.9473 C207.8146,10.1333 209.5026,11.4753 212.6876,12.7823 C217.1386,14.5833 220.9366,16.6943 220.9366,21.3773 C220.9366,25.3663 217.3676,28.6293 212.3786,28.6293 C207.6986,28.6293 204.7446,26.1733 204.1286,25.5963 C203.7836,25.2893 203.5156,25.0213 203.8996,24.3693" id="Fill-16" fill="#000000"></path>
            <path d="M253.6404,1.0006 C257.5164,1.0006 260.3174,2.3046 262.9254,4.5696 C263.2704,4.8766 263.2704,5.3376 262.9644,5.6426 L261.2764,7.3686 C261.0084,7.7166 260.6624,7.7166 260.3174,7.3686 C258.5134,5.7966 256.0574,4.7996 253.6794,4.7996 C248.1924,4.7996 244.0484,9.4046 244.0484,14.7756 C244.0484,20.1486 248.2304,24.7126 253.7174,24.7126 C256.5184,24.7126 258.4744,23.6016 260.3174,22.1816 C260.6624,21.9136 261.0084,21.9506 261.2374,22.1436 L263.0024,23.8696 C263.3094,24.1376 263.2324,24.6376 262.9644,24.9056 C260.3564,27.4386 257.0554,28.6296 253.6404,28.6296 C245.9654,28.6296 239.7884,22.5266 239.7884,14.8526 C239.7884,7.1776 245.9654,1.0006 253.6404,1.0006" id="Fill-18" fill="#000000"></path>
            <path d="M283.696,1.0006 C291.371,1.0006 297.509,7.1776 297.509,14.8526 C297.509,22.5266 291.371,28.6296 283.696,28.6296 C276.022,28.6296 269.922,22.5266 269.922,14.8526 C269.922,7.1776 276.022,1.0006 283.696,1.0006 M283.696,24.7906 C289.183,24.7906 293.672,20.3396 293.672,14.8526 C293.672,9.4046 289.183,4.8376 283.696,4.8376 C278.248,4.8376 273.759,9.4046 273.759,14.8526 C273.759,20.3396 278.248,24.7906 283.696,24.7906" id="Fill-20" fill="#000000"></path>
            <path d="M306.5393,2.1134 C306.5393,1.7294 306.8463,1.3844 307.2683,1.3844 L322.6183,1.3844 C323.0403,1.3844 323.3453,1.7294 323.3453,2.1134 L323.3453,4.2624 C323.3453,4.6464 323.0403,4.9894 322.6183,4.9894 L310.4923,4.9894 L310.4923,13.8544 L320.7363,13.8544 C321.1213,13.8544 321.4663,14.1994 321.4663,14.5834 L321.4663,16.6944 C321.4663,17.0784 321.1213,17.4244 320.7363,17.4244 L310.4923,17.4244 L310.4923,27.5154 C310.4923,27.8974 310.1473,28.2444 309.7633,28.2444 L307.2683,28.2444 C306.8463,28.2444 306.5393,27.8974 306.5393,27.5154 L306.5393,2.1134 Z" id="Fill-22" fill="#000000"></path>
            <path d="M331.7966,2.1134 C331.7966,1.7294 332.1036,1.3844 332.5256,1.3844 L347.8746,1.3844 C348.2976,1.3844 348.6016,1.7294 348.6016,2.1134 L348.6016,4.2624 C348.6016,4.6464 348.2976,4.9894 347.8746,4.9894 L335.7496,4.9894 L335.7496,13.8544 L345.9936,13.8544 C346.3776,13.8544 346.7226,14.1994 346.7226,14.5834 L346.7226,16.6944 C346.7226,17.0784 346.3776,17.4244 345.9936,17.4244 L335.7496,17.4244 L335.7496,27.5154 C335.7496,27.8974 335.4036,28.2444 335.0206,28.2444 L332.5256,28.2444 C332.1036,28.2444 331.7966,27.8974 331.7966,27.5154 L331.7966,2.1134 Z" id="Fill-24" fill="#000000"></path>
            <path d="M357.0544,2.1134 C357.0544,1.7294 357.3614,1.3844 357.7834,1.3844 L373.1334,1.3844 C373.5534,1.3844 373.8594,1.7294 373.8594,2.1134 L373.8594,4.2624 C373.8594,4.6464 373.5534,4.9894 373.1334,4.9894 L361.0074,4.9894 L361.0074,12.8184 L371.2514,12.8184 C371.6354,12.8184 371.9814,13.1634 371.9814,13.5484 L371.9814,15.6964 C371.9814,16.1194 371.6354,16.4264 371.2514,16.4264 L361.0074,16.4264 L361.0074,24.6754 L373.1334,24.6754 C373.5534,24.6754 373.8594,25.0214 373.8594,25.4054 L373.8594,27.5154 C373.8594,27.8974 373.5534,28.2444 373.1334,28.2444 L357.7834,28.2444 C357.3614,28.2444 357.0544,27.8974 357.0544,27.5154 L357.0544,2.1134 Z" id="Fill-26" fill="#000000"></path>
            <g id="Group-30" transform="translate(383.000000, 0.629600)">
                <mask id="mask-4" fill="white">
                    <use xlink:href="#path-3"></use>
                </mask>
                <g id="Clip-29"></g>
                <path d="M0.1945,1.4838 C0.1945,1.0998 0.5015,0.7548 0.9235,0.7548 L16.2735,0.7548 C16.6935,0.7548 17.0005,1.0998 17.0005,1.4838 L17.0005,3.6328 C17.0005,4.0168 16.6935,4.3598 16.2735,4.3598 L4.1475,4.3598 L4.1475,12.1888 L14.3915,12.1888 C14.7755,12.1888 15.1215,12.5338 15.1215,12.9188 L15.1215,15.0668 C15.1215,15.4898 14.7755,15.7968 14.3915,15.7968 L4.1475,15.7968 L4.1475,24.0458 L16.2735,24.0458 C16.6935,24.0458 17.0005,24.3918 17.0005,24.7758 L17.0005,26.8858 C17.0005,27.2678 16.6935,27.6148 16.2735,27.6148 L0.9235,27.6148 C0.5015,27.6148 0.1945,27.2678 0.1945,26.8858 L0.1945,1.4838 Z" id="Fill-28" fill="#000000" mask="url(#mask-4)"></path>
            </g>
        </g>
    </g>
</svg>