<svg height="14" viewBox="0 0 1440 14" width="1440" xmlns="http://www.w3.org/2000/svg"><path d="m1440 259.989253-31.30339-11.989253-31.30339 11.989253-31.30678-11.989253-31.30339 11.989253-31.30339-11.989253-31.30678 11.989253-31.3-11.989253-31.30678 11.989253-31.30339-11.989253-31.30678 11.989253-31.30339-11.989253-31.30677 11.989253-31.3034-11.989253-31.30677 11.989253-31.303393-11.989253-31.303391 11.989253-31.306776-11.989253-31.303391 11.989253-31.300007-11.989253-31.306776 11.989253-31.303391-11.989253-31.303391 11.989253-31.303392-11.989253-31.306776 11.989253-31.303391-11.989253-31.306776 11.989253-31.303391-11.989253-31.303391 11.989253-31.303392-11.989253-31.306776 11.989253-31.303391-11.989253-31.303391 11.989253-31.306776-11.989253-31.303392 11.989253-31.303391-11.989253-31.306776 11.989253-31.300006-11.989253-31.306776 11.989253-31.303392-11.989253-31.303391 11.989253-31.306776-11.989253-31.303391 11.989253-31.3033914-11.989253-31.3067761 11.989253-31.3033913-11.989253-31.3033912 11.989253" fill="none" stroke="#000" transform="translate(0 -247)"/></svg>